<svg width="21" height="20" viewBox="0 0 21 20" fill="none" xmlns="http://www.w3.org/2000/svg">
<path d="M10.0006 7.3051C9.46745 7.30369 8.9459 7.46046 8.50192 7.75559C8.05794 8.05072 7.71149 8.47093 7.50643 8.96304C7.30137 9.45514 7.24691 9.99703 7.34994 10.5201C7.45298 11.0432 7.70888 11.5239 8.08525 11.9015C8.46163 12.2791 8.94155 12.5365 9.46429 12.6412C9.98703 12.7459 10.5291 12.6932 11.0218 12.4897C11.5146 12.2862 11.9359 11.9411 12.2325 11.498C12.529 11.055 12.6874 10.5339 12.6877 10.0008C12.6873 9.28746 12.4044 8.60331 11.9008 8.09809C11.3972 7.59288 10.7139 7.30774 10.0006 7.3051Z" fill="#ADADAD"/>
<path d="M19.9293 5.88953C19.9157 5.30783 19.8371 4.72948 19.695 4.16524C19.4459 3.11384 18.8769 2.16553 18.0664 1.45096C17.2168 0.71529 16.1615 0.258918 15.0436 0.143813C14.4745 0.0756489 13.9023 0.0365504 13.3293 0.0266706C12.1978 0.000956317 11.0721 0.000956317 9.94641 0.000956317C8.61641 0.000956317 7.28641 -0.0119008 5.95355 0.0566706C5.44936 0.0743844 4.94734 0.131704 4.45213 0.228099C3.36482 0.43056 2.3668 0.964503 1.59498 1.75667C0.807095 2.60618 0.305462 3.6814 0.160697 4.83096C0.0714809 5.47424 0.0270882 6.12295 0.0278401 6.77238C0.0097449 7.83238 0.000697279 8.89334 0.000697279 9.95524C0.000697279 11.4295 -0.0164456 12.9081 0.0764116 14.3824C0.110575 15.0131 0.223842 15.637 0.413554 16.2395C0.789451 17.4493 1.60496 18.4742 2.69927 19.1124C3.52066 19.5811 4.44052 19.8507 5.38498 19.8995C6.03355 19.9481 6.68641 19.9795 7.33784 19.9824C9.45784 19.9952 11.5793 20.0238 13.7007 19.9552C14.3692 19.9478 15.0353 19.8741 15.6893 19.7352C16.7735 19.5072 17.758 18.9424 18.502 18.1214C19.246 17.3004 19.7116 16.2652 19.8321 15.1638C19.9199 14.5204 19.9643 13.8718 19.965 13.2224C19.985 12.151 19.9878 11.0795 20.0036 9.53953C19.9836 8.63096 19.9621 7.25953 19.9293 5.88953ZM9.98927 15.131C8.97449 15.1301 7.98275 14.8284 7.13942 14.264C6.29609 13.6995 5.63905 12.8977 5.25137 11.9599C4.86368 11.0221 4.76276 9.99044 4.96135 8.99529C5.15995 8.00013 5.64915 7.0862 6.36711 6.36904C7.08506 5.65189 7.99954 5.1637 8.99491 4.96621C9.99029 4.76872 11.0219 4.8708 11.9592 5.25953C12.8966 5.64826 13.6977 6.30619 14.2612 7.15014C14.8247 7.9941 15.1253 8.98618 15.125 10.001C15.1254 10.6752 14.9927 11.3429 14.7347 11.9659C14.4767 12.5888 14.0983 13.1548 13.6213 13.6313C13.1442 14.1078 12.5779 14.4855 11.9546 14.7429C11.3314 15.0002 10.6635 15.1321 9.98927 15.131ZM15.8307 5.9881C15.488 5.98923 15.1526 5.88861 14.8671 5.69898C14.5816 5.50936 14.3587 5.23926 14.2269 4.9229C14.095 4.60654 14.06 4.25816 14.1262 3.92188C14.1925 3.5856 14.3571 3.27655 14.5992 3.03389C14.8412 2.79123 15.1499 2.62588 15.486 2.55877C15.8221 2.49166 16.1705 2.52581 16.4872 2.65691C16.8039 2.78801 17.0746 3.01015 17.2649 3.29519C17.4552 3.58023 17.5567 3.91535 17.5564 4.2581C17.553 4.71461 17.3701 5.15145 17.0472 5.47413C16.7242 5.79681 16.2872 5.97939 15.8307 5.98238V5.9881Z" fill="#ADADAD"/>
</svg>
