<svg width="20" height="20" viewBox="0 0 20 20" fill="none" xmlns="http://www.w3.org/2000/svg">
<path d="M14.0991 0.000823975H10.572C10.572 0.000823975 10.5263 13.5323 10.4948 13.858C10.3961 14.5777 10.023 15.2314 9.45339 15.6823C8.92892 16.1224 8.27198 16.3739 7.58768 16.3965C6.77365 16.3878 5.99436 16.0654 5.4121 15.4964C4.82985 14.9275 4.48951 14.1559 4.46197 13.3423C4.48211 12.6049 4.76227 11.8983 5.25295 11.3475C5.74363 10.7967 6.41322 10.4371 7.14339 10.3323C7.30339 10.3194 7.53054 10.3137 7.74911 10.3094V6.72368C7.22001 6.71556 6.69113 6.75044 6.16768 6.82797C4.81837 7.11201 3.58989 7.8063 2.65054 8.81572C1.71119 9.82514 1.10693 11.1003 0.920537 12.4665C0.760577 13.5202 0.867131 14.5972 1.23047 15.5991C1.59381 16.6011 2.20235 17.496 3.00054 18.2023C4.04701 19.1924 5.39046 19.8104 6.82328 19.9607C8.2561 20.111 9.69853 19.7852 10.9277 19.0337C11.9099 18.4719 12.7247 17.6585 13.2881 16.6773C13.8516 15.696 14.1433 14.5823 14.1334 13.4508C14.1763 11.098 14.1677 7.20082 14.1777 7.02225C15.6342 8.03497 17.3596 8.59053 19.1334 8.61797V5.11654C16.212 4.62511 14.3763 3.10082 14.0991 0.000823975Z" fill="#ADADAD"/>
</svg>
