<svg width="20" height="16" viewBox="0 0 20 16" fill="none" xmlns="http://www.w3.org/2000/svg">
<path fill-rule="evenodd" clip-rule="evenodd" d="M19.4477 0.387958C18.6397 0.85486 17.7588 1.1823 16.842 1.35653C16.4527 0.955164 15.9863 0.636742 15.4707 0.420444C14.9551 0.204146 14.4011 0.0944482 13.842 0.0979581C12.7699 0.0842237 11.7363 0.496575 10.9681 1.24444C10.1998 1.9923 9.75989 3.01451 9.74484 4.08653C9.74619 4.39468 9.78407 4.70158 9.85769 5.00081C8.23517 4.9274 6.64545 4.51872 5.18868 3.80054C3.73191 3.08236 2.43968 2.07024 1.39341 0.827958C1.0305 1.43201 0.838427 2.12327 0.837692 2.82796C0.838961 3.49088 1.00682 4.14285 1.32583 4.72397C1.64485 5.30509 2.10479 5.79671 2.66341 6.15367C2.01393 6.13469 1.37792 5.96395 0.806264 5.6551C0.806264 5.67081 0.806264 5.68796 0.806264 5.7051C0.815705 6.63701 1.14853 7.53671 1.74784 8.25041C2.34715 8.96411 3.17574 9.4475 4.09198 9.61796C3.73924 9.71235 3.3757 9.76038 3.01055 9.76082C2.75167 9.76133 2.49333 9.73693 2.23912 9.68796C2.51297 10.4896 3.02862 11.1865 3.71506 11.6829C4.40149 12.1792 5.22494 12.4505 6.07198 12.4594C4.60804 13.5754 2.8171 14.1779 0.976264 14.1737C0.650061 14.171 0.324283 14.1495 0.000549316 14.1094C1.88609 15.285 4.06423 15.9068 6.28626 15.9037C7.8014 15.9363 9.3079 15.6672 10.7181 15.1122C12.1283 14.5571 13.414 13.7271 14.5004 12.6705C15.5868 11.6139 16.4522 10.3517 17.0462 8.9575C17.6402 7.56328 17.951 6.06485 17.9605 4.54939C17.9605 4.37653 17.9606 4.2051 17.9491 4.03367C18.7507 3.47243 19.4454 2.77236 20.0005 1.96653C19.2501 2.29134 18.4558 2.50363 17.6434 2.59653C18.4948 2.10589 19.1367 1.32011 19.4477 0.387958Z" fill="#ADADAD"/>
</svg>
