<svg width="20" height="16" viewBox="0 0 20 16" fill="none" xmlns="http://www.w3.org/2000/svg">
<path d="M19.582 3.1551C19.469 2.72982 19.2463 2.34167 18.9362 2.02952C18.6261 1.71738 18.2394 1.4922 17.8148 1.37653C15.2222 1.06411 12.6117 0.923326 10.0005 0.955104C7.38933 0.923326 4.77888 1.06411 2.18624 1.37653C1.76169 1.4922 1.37499 1.71738 1.06485 2.02952C0.754711 2.34167 0.532027 2.72982 0.419099 3.1551C0.130361 4.75397 -0.0097607 6.37612 0.000527906 8.00082C-0.0097607 9.62551 0.130361 11.2477 0.419099 12.8465C0.532027 13.2718 0.754711 13.66 1.06485 13.9721C1.37499 14.2843 1.76169 14.5094 2.18624 14.6251C4.77888 14.9375 7.38933 15.0783 10.0005 15.0465C12.6117 15.0783 15.2222 14.9375 17.8148 14.6251C18.2394 14.5094 18.6261 14.2843 18.9362 13.9721C19.2463 13.66 19.469 13.2718 19.582 12.8465C19.8707 11.2477 20.0108 9.62551 20.0005 8.00082C20.0108 6.37612 19.8707 4.75397 19.582 3.1551ZM7.95481 10.9751V5.02653L13.182 8.00082L7.95481 10.9751Z" fill="#ADADAD"/>
</svg>
