<svg width="15" height="12" viewBox="0 0 15 12" fill="none" xmlns="http://www.w3.org/2000/svg">
<path fill-rule="evenodd" clip-rule="evenodd" d="M6.82245 1.83189L3.74145 4.87689L12.9354 4.91889C13.0761 4.91942 13.2153 4.94768 13.3451 5.00206C13.4748 5.05644 13.5926 5.13588 13.6916 5.23582C13.7906 5.33577 13.8689 5.45425 13.9221 5.5845C13.9753 5.71475 14.0022 5.85421 14.0014 5.99489C14.0008 6.13549 13.9724 6.27458 13.918 6.40422C13.8636 6.53385 13.7841 6.65148 13.6842 6.75039C13.5842 6.8493 13.4658 6.92754 13.3356 6.98065C13.2054 7.03376 13.066 7.06068 12.9254 7.05989L3.73345 7.01889L6.77345 10.0949C6.87253 10.1947 6.95098 10.313 7.00431 10.4431C7.05764 10.5732 7.0848 10.7125 7.08424 10.8531C7.08368 10.9937 7.05542 11.1329 7.00106 11.2625C6.9467 11.3922 6.86732 11.5099 6.76745 11.6089C6.56552 11.8087 6.29256 11.9202 6.0085 11.9189C5.72444 11.9175 5.45251 11.8035 5.25245 11.6019L0.252447 6.55289C0.0889499 6.38673 -0.00184686 6.16243 2.84832e-05 5.92932C0.00190382 5.69622 0.0962977 5.4734 0.262447 5.30989L5.31545 0.309894C5.5172 0.110158 5.79 -0.00130113 6.0739 1.14631e-05C6.35779 0.00132406 6.62955 0.115301 6.82945 0.316894C6.9285 0.416811 7.00689 0.535265 7.06015 0.665489C7.1134 0.795712 7.14048 0.935153 7.13983 1.07584C7.13918 1.21653 7.11081 1.35572 7.05636 1.48545C7.0019 1.61517 6.92242 1.7329 6.82245 1.83189Z" fill="#ABABAB"/>
</svg>
