<svg width="16" height="12" viewBox="0 0 16 12" fill="none"
  xmlns="http://www.w3.org/2000/svg">
  <path fill-rule="evenodd" clip-rule="evenodd" d="M8.20287 10.1556L11.7233 7.08991L1.21805 7.04763C1.0573 7.0471 0.89825 7.01864 0.749996 6.96389C0.601743 6.90914 0.467199 6.82916 0.354065 6.72854C0.24093 6.62792 0.151426 6.50862 0.0906743 6.37749C0.0299228 6.24635 -0.000883238 6.10594 1.92709e-05 5.9643C0.00076745 5.82275 0.0331704 5.68271 0.0953758 5.55219C0.157581 5.42168 0.248369 5.30324 0.36255 5.20366C0.476731 5.10408 0.612066 5.0253 0.760819 4.97184C0.909571 4.91837 1.06882 4.89126 1.22948 4.89205L11.7324 4.93333L8.25886 1.83639C8.14564 1.73595 8.056 1.61683 7.99507 1.48584C7.93413 1.35484 7.9031 1.21456 7.90374 1.07299C7.90437 0.931424 7.93667 0.791357 7.99878 0.660796C8.06089 0.530235 8.1516 0.411742 8.26571 0.312089C8.49643 0.110933 8.80833 -0.00130988 9.1329 1.15367e-05C9.45747 0.00133295 9.76818 0.116111 9.99678 0.319137L15.7099 5.4025C15.8971 5.5694 16.0015 5.795 16 6.02969C15.9985 6.26438 15.8912 6.48894 15.7019 6.65397L9.92822 11.688C9.69769 11.8891 9.38599 12.0013 9.0616 12C8.73722 11.9987 8.4267 11.8839 8.1983 11.681C8.0849 11.5806 7.99506 11.4614 7.93391 11.3304C7.87277 11.1994 7.84151 11.0591 7.84194 10.9175C7.84236 10.7758 7.87446 10.6356 7.93639 10.5049C7.99832 10.3742 8.08887 10.2555 8.20287 10.1556Z" fill="#fff" fill-opacity="1"/>
</svg>
