<svg width="21" height="16" viewBox="0 0 21 16" fill="none" xmlns="http://www.w3.org/2000/svg">
<path d="M6.67568 14.82L1.71425 9.85714C1.48666 9.62974 1.30611 9.35972 1.18293 9.06251C1.05974 8.7653 0.996338 8.44672 0.996338 8.125C0.996338 7.80327 1.05974 7.48469 1.18293 7.18748C1.30611 6.89027 1.48666 6.62025 1.71425 6.39285C2.17388 5.9339 2.79686 5.67612 3.44639 5.67612C4.09593 5.67612 4.71891 5.9339 5.17854 6.39285L8.28568 9.49714C8.34831 9.55943 8.43306 9.59439 8.52139 9.59439C8.60973 9.59439 8.69447 9.55943 8.75711 9.49714L16.8142 1.44C17.2739 0.981045 17.8969 0.723267 18.5464 0.723267C19.1959 0.723267 19.8189 0.981045 20.2785 1.44C20.5061 1.66739 20.6867 1.93742 20.8099 2.23463C20.933 2.53184 20.9964 2.85041 20.9964 3.17214C20.9964 3.49387 20.933 3.81244 20.8099 4.10965C20.6867 4.40686 20.5061 4.67688 20.2785 4.90428L10.3642 14.82C9.87507 15.309 9.21168 15.5838 8.51996 15.5838C7.82825 15.5838 7.16486 15.309 6.67568 14.82Z" fill="white"/>
</svg>
