<svg width="24" height="24" viewBox="0 0 24 24" fill="none" xmlns="http://www.w3.org/2000/svg">
<path d="M12 0C9.62721 1.54958e-06 7.30767 0.703445 5.33458 2.02142C3.36149 3.33939 1.82341 5.21272 0.914761 7.40464C0.00610805 9.59655 -0.232331 12.0086 0.229581 14.336C0.691493 16.6634 1.83302 18.8017 3.50988 20.4804C5.18674 22.1592 7.32365 23.3032 9.65052 23.7677C11.9774 24.2323 14.3898 23.9966 16.5827 23.0905C18.7757 22.1843 20.6507 20.6484 21.971 18.6768C23.2912 16.7052 23.9973 14.3865 24 12.0137C24.0018 10.4367 23.6927 8.87479 23.0905 7.4173C22.4882 5.95981 21.6046 4.63532 20.4901 3.51957C19.3756 2.40381 18.0522 1.51867 16.5954 0.914756C15.1386 0.310842 13.577 -1.02989e-06 12 0ZM16.9577 6.28457C17.3706 6.30045 17.7695 6.43879 18.1036 6.682C18.4376 6.92521 18.6918 7.26229 18.8338 7.65036C18.9757 8.03844 18.999 8.45997 18.9007 8.86133C18.8025 9.26269 18.587 9.62575 18.2818 9.90431C17.9766 10.1829 17.5954 10.3644 17.1868 10.4257C16.7781 10.487 16.3605 10.4254 15.9869 10.2487C15.6134 10.072 15.3009 9.78813 15.0891 9.43329C14.8773 9.07845 14.7759 8.66865 14.7977 8.256C14.827 7.70969 15.0699 7.19679 15.474 6.82798C15.8781 6.45916 16.411 6.26399 16.9577 6.28457ZM7.11943 6.28457C7.53196 6.28356 7.9355 6.40507 8.27888 6.6337C8.62227 6.86232 8.89003 7.18777 9.04821 7.56878C9.20639 7.94978 9.24787 8.36917 9.16739 8.77378C9.0869 9.17838 8.88808 9.54998 8.59614 9.84144C8.30419 10.1329 7.93227 10.3311 7.52753 10.4109C7.12279 10.4907 6.70347 10.4486 6.32273 10.2898C5.94199 10.1309 5.61698 9.86265 5.38892 9.51889C5.16086 9.17513 5.04002 8.77139 5.04171 8.35886C5.04307 7.80839 5.26246 7.28088 5.65187 6.8918C6.04127 6.50272 6.56896 6.28376 7.11943 6.28286V6.28457ZM15.4663 18.8949C14.6148 19.417 13.6566 19.7404 12.6629 19.841C11.6693 19.9416 10.6657 19.8168 9.72685 19.476C8.72295 19.1212 7.82423 18.5199 7.11316 17.7273C6.40209 16.9348 5.90144 15.9764 5.65714 14.94C5.6281 14.7913 5.63227 14.638 5.66935 14.4911C5.70644 14.3442 5.77552 14.2073 5.87166 14.0902C5.9678 13.9731 6.08863 13.8787 6.2255 13.8137C6.36237 13.7487 6.51191 13.7148 6.66343 13.7143H17.3006C17.4575 13.7152 17.6122 13.7515 17.7532 13.8205C17.8941 13.8895 18.0176 13.9895 18.1145 14.1129C18.2114 14.2364 18.2792 14.3801 18.3128 14.5334C18.3464 14.6867 18.345 14.8456 18.3086 14.9983C18.1235 15.8062 17.7761 16.5681 17.2875 17.2377C16.7989 17.9072 16.1793 18.4705 15.4663 18.8931V18.8949Z" fill="#ADADAD"/>
</svg>
