<svg width="14" height="11" viewBox="0 0 14 11" fill="none" xmlns="http://www.w3.org/2000/svg">
<path fill-rule="evenodd" clip-rule="evenodd" d="M14 1.3342C14 0.980351 13.863 0.640991 13.6192 0.390779C13.3754 0.140567 13.0448 0 12.7 0H1.3C0.955219 0 0.624558 0.140567 0.380761 0.390779C0.136964 0.640991 0 0.980351 0 1.3342V9.6658C0 10.0196 0.136964 10.359 0.380761 10.6092C0.624558 10.8594 0.955219 11 1.3 11H12.7C13.0448 11 13.3754 10.8594 13.6192 10.6092C13.863 10.359 14 10.0196 14 9.6658V1.3342ZM6.636 6.61252L2.7 2.76693C2.63432 2.70048 2.59007 2.61495 2.57322 2.52188C2.55637 2.42881 2.56773 2.33268 2.60576 2.24644C2.6438 2.16021 2.70668 2.08801 2.78594 2.03959C2.86519 1.99117 2.957 1.96885 3.049 1.97565H10.954C11.0463 1.96848 11.1384 1.99067 11.2179 2.0392C11.2975 2.08772 11.3605 2.16022 11.3984 2.24683C11.4363 2.33344 11.4473 2.42993 11.4299 2.52319C11.4125 2.61644 11.3675 2.70191 11.301 2.76796L7.332 6.61355C7.237 6.70299 7.11272 6.75252 6.98381 6.75233C6.85489 6.75214 6.73075 6.70224 6.636 6.61252Z" fill="#ADADAD"/>
</svg>
