<svg width="10" height="12" viewBox="0 0 10 12" fill="none" xmlns="http://www.w3.org/2000/svg">
<path fill-rule="evenodd" clip-rule="evenodd" d="M9.30723 4.71253L2.16415 0.214093C1.94739 0.0774038 1.69996 0.00356807 1.44714 0.000126103C1.19431 -0.00331587 0.945146 0.0637593 0.725084 0.194502C0.505022 0.325244 0.321949 0.51497 0.194561 0.744303C0.0671727 0.973636 3.36608e-05 1.23436 0 1.49985V10.5001C3.36608e-05 10.7656 0.0671727 11.0264 0.194561 11.2557C0.321949 11.485 0.505022 11.6748 0.725084 11.8055C0.945146 11.9362 1.19431 12.0033 1.44714 11.9999C1.69996 11.9964 1.94739 11.9226 2.16415 11.7859L9.30723 7.28404C9.51855 7.15071 9.69341 6.96222 9.8148 6.73691C9.9362 6.51161 10 6.25715 10 5.99829C10 5.73942 9.9362 5.48496 9.8148 5.25966C9.69341 5.03435 9.51855 4.84586 9.30723 4.71253Z" fill="#ADADAD"/>
</svg>
