<svg width="164" height="145" viewBox="0 0 164 145" fill="none" xmlns="http://www.w3.org/2000/svg">
<path d="M5.5625 55.625C4.08723 55.625 2.67236 56.211 1.62919 57.2542C0.586015 58.2974 0 59.7122 0 61.1875V83.4375C0 84.9128 0.586015 86.3276 1.62919 87.3708C2.67236 88.414 4.08723 89 5.5625 89C7.03777 89 8.45264 88.414 9.49581 87.3708C10.539 86.3276 11.125 84.9128 11.125 83.4375V61.1875C11.125 59.7122 10.539 58.2974 9.49581 57.2542C8.45264 56.211 7.03777 55.625 5.5625 55.625Z" fill="url(#paint0_linear_256_109)" fill-opacity="0.1"/>
<path d="M24.5677 33.375C23.0924 33.375 21.6775 33.961 20.6343 35.0042C19.5912 36.0474 19.0052 37.4622 19.0052 38.9375V105.688C19.0052 107.163 19.5912 108.578 20.6343 109.621C21.6775 110.664 23.0924 111.25 24.5677 111.25C26.0429 111.25 27.4578 110.664 28.501 109.621C29.5441 108.578 30.1302 107.163 30.1302 105.688V38.9375C30.1302 37.4622 29.5441 36.0474 28.501 35.0042C27.4578 33.961 26.0429 33.375 24.5677 33.375Z" fill="url(#paint1_linear_256_109)" fill-opacity="0.1"/>
<path d="M43.5728 44.5C42.0975 44.5 40.6827 45.086 39.6395 46.1292C38.5963 47.1724 38.0103 48.5872 38.0103 50.0625V94.5625C38.0103 96.0378 38.5963 97.4526 39.6395 98.4958C40.6827 99.539 42.0975 100.125 43.5728 100.125C45.0481 100.125 46.4629 99.539 47.5061 98.4958C48.5493 97.4526 49.1353 96.0378 49.1353 94.5625V50.0625C49.1353 48.5872 48.5493 47.1724 47.5061 46.1292C46.4629 45.086 45.0481 44.5 43.5728 44.5Z" fill="url(#paint2_linear_256_109)" fill-opacity="0.1"/>
<path d="M62.5781 11.125C61.1029 11.125 59.688 11.711 58.6448 12.7542C57.6016 13.7974 57.0156 15.2122 57.0156 16.6875V127.938C57.0156 129.413 57.6016 130.828 58.6448 131.871C59.688 132.914 61.1029 133.5 62.5781 133.5C64.0534 133.5 65.4683 132.914 66.5114 131.871C67.5546 130.828 68.1406 129.413 68.1406 127.938V16.6875C68.1406 15.2122 67.5546 13.7974 66.5114 12.7542C65.4683 11.711 64.0534 11.125 62.5781 11.125Z" fill="url(#paint3_linear_256_109)" fill-opacity="0.1"/>
<path d="M81.5833 37.0833C80.108 37.0833 78.6931 37.6694 77.65 38.7126C76.6068 39.7557 76.0208 41.1706 76.0208 42.6458V101.979C76.0208 103.454 76.6068 104.869 77.65 105.912C78.6931 106.956 80.108 107.542 81.5833 107.542C83.0585 107.542 84.4734 106.956 85.5166 105.912C86.5598 104.869 87.1458 103.454 87.1458 101.979V42.6458C87.1458 41.1706 86.5598 39.7557 85.5166 38.7126C84.4734 37.6694 83.0585 37.0833 81.5833 37.0833Z" fill="url(#paint4_linear_256_109)" fill-opacity="0.1"/>
<path d="M100.588 25.9583C99.1132 25.9583 97.6983 26.5444 96.6551 27.5876C95.6119 28.6307 95.0259 30.0456 95.0259 31.5208V113.104C95.0259 114.579 95.6119 115.994 96.6551 117.037C97.6983 118.081 99.1132 118.667 100.588 118.667C102.064 118.667 103.479 118.081 104.522 117.037C105.565 115.994 106.151 114.579 106.151 113.104V31.5208C106.151 30.0456 105.565 28.6307 104.522 27.5876C103.479 26.5444 102.064 25.9583 100.588 25.9583Z" fill="url(#paint5_linear_256_109)" fill-opacity="0.1"/>
<path d="M157.604 48.2083C159.079 48.2083 160.494 48.7944 161.537 49.8376C162.581 50.8807 163.167 52.2956 163.167 53.7708V90.8542C163.167 92.3294 162.581 93.7443 161.537 94.7875C160.494 95.8306 159.079 96.4167 157.604 96.4167C156.129 96.4167 154.714 95.8306 153.671 94.7875C152.628 93.7443 152.042 92.3294 152.042 90.8542V53.7708C152.042 52.2956 152.628 50.8807 153.671 49.8376C154.714 48.7944 156.129 48.2083 157.604 48.2083Z" fill="url(#paint6_linear_256_109)" fill-opacity="0.1"/>
<path d="M138.599 35.2292C140.074 35.2292 141.489 35.8152 142.532 36.8584C143.575 37.9015 144.161 39.3164 144.161 40.7917V103.833C144.161 105.309 143.575 106.723 142.532 107.767C141.489 108.81 140.074 109.396 138.599 109.396C137.124 109.396 135.709 108.81 134.666 107.767C133.622 106.723 133.036 105.309 133.036 103.833V40.7917C133.036 39.3164 133.622 37.9015 134.666 36.8584C135.709 35.8152 137.124 35.2292 138.599 35.2292Z" fill="url(#paint7_linear_256_109)" fill-opacity="0.1"/>
<path d="M119.594 0C121.069 0 122.484 0.586043 123.527 1.62921C124.57 2.67239 125.156 4.08723 125.156 5.5625V139.062C125.156 140.538 124.57 141.953 123.527 142.996C122.484 144.039 121.069 144.625 119.594 144.625C118.118 144.625 116.704 144.039 115.66 142.996C114.617 141.953 114.031 140.538 114.031 139.062V5.5625C114.031 4.08723 114.617 2.67239 115.66 1.62921C116.704 0.586043 118.118 0 119.594 0Z" fill="url(#paint8_linear_256_109)" fill-opacity="0.1"/>
<defs>
<linearGradient id="paint0_linear_256_109" x1="119.594" y1="0" x2="119.594" y2="144.625" gradientUnits="userSpaceOnUse">
<stop stop-color="#5C5C5C"/>
<stop offset="1" stop-color="#5C5C5C" stop-opacity="0"/>
</linearGradient>
<linearGradient id="paint1_linear_256_109" x1="119.594" y1="0" x2="119.594" y2="144.625" gradientUnits="userSpaceOnUse">
<stop stop-color="#5C5C5C"/>
<stop offset="1" stop-color="#5C5C5C" stop-opacity="0"/>
</linearGradient>
<linearGradient id="paint2_linear_256_109" x1="119.594" y1="0" x2="119.594" y2="144.625" gradientUnits="userSpaceOnUse">
<stop stop-color="#5C5C5C"/>
<stop offset="1" stop-color="#5C5C5C" stop-opacity="0"/>
</linearGradient>
<linearGradient id="paint3_linear_256_109" x1="119.594" y1="0" x2="119.594" y2="144.625" gradientUnits="userSpaceOnUse">
<stop stop-color="#5C5C5C"/>
<stop offset="1" stop-color="#5C5C5C" stop-opacity="0"/>
</linearGradient>
<linearGradient id="paint4_linear_256_109" x1="119.594" y1="0" x2="119.594" y2="144.625" gradientUnits="userSpaceOnUse">
<stop stop-color="#5C5C5C"/>
<stop offset="1" stop-color="#5C5C5C" stop-opacity="0"/>
</linearGradient>
<linearGradient id="paint5_linear_256_109" x1="119.594" y1="0" x2="119.594" y2="144.625" gradientUnits="userSpaceOnUse">
<stop stop-color="#5C5C5C"/>
<stop offset="1" stop-color="#5C5C5C" stop-opacity="0"/>
</linearGradient>
<linearGradient id="paint6_linear_256_109" x1="119.594" y1="0" x2="119.594" y2="144.625" gradientUnits="userSpaceOnUse">
<stop stop-color="#5C5C5C"/>
<stop offset="1" stop-color="#5C5C5C" stop-opacity="0"/>
</linearGradient>
<linearGradient id="paint7_linear_256_109" x1="119.594" y1="0" x2="119.594" y2="144.625" gradientUnits="userSpaceOnUse">
<stop stop-color="#5C5C5C"/>
<stop offset="1" stop-color="#5C5C5C" stop-opacity="0"/>
</linearGradient>
<linearGradient id="paint8_linear_256_109" x1="119.594" y1="0" x2="119.594" y2="144.625" gradientUnits="userSpaceOnUse">
<stop stop-color="#5C5C5C"/>
<stop offset="1" stop-color="#5C5C5C" stop-opacity="0"/>
</linearGradient>
</defs>
</svg>
