<svg width="62" height="64" viewBox="0 0 62 64" fill="none" xmlns="http://www.w3.org/2000/svg">
<g filter="url(#filter0_d_26_116)">
<path d="M22.21 39.07V37.6329C22.2366 37.1093 22.4059 36.603 22.6995 36.1686C22.993 35.7343 23.3998 35.3885 23.8757 35.1686C28.4495 33.3314 33.5561 33.3314 38.13 35.1686C38.6059 35.3885 39.0126 35.7343 39.3062 36.1686C39.5998 36.603 39.769 37.1093 39.7957 37.6329V39.07C39.7955 39.4552 39.7194 39.8366 39.5717 40.1924C39.424 40.5481 39.2077 40.8713 38.9351 41.1434C38.6624 41.4155 38.3388 41.6312 37.9828 41.7782C37.6267 41.9252 37.2452 42.0006 36.86 42H25.1457C24.7605 42.0006 24.3789 41.9252 24.0229 41.7782C23.6668 41.6312 23.3432 41.4155 23.0706 41.1434C22.7979 40.8713 22.5816 40.5481 22.4339 40.1924C22.2863 39.8366 22.2101 39.4552 22.21 39.07ZM31.0028 22C30.0365 21.9997 29.0917 22.286 28.2881 22.8227C27.4844 23.3594 26.858 24.1223 26.488 25.015C26.118 25.9078 26.021 26.8902 26.2094 27.838C26.3977 28.7858 26.8629 29.6565 27.5462 30.3399C28.2294 31.0234 29.0999 31.4888 30.0477 31.6774C30.9955 31.8661 31.9779 31.7694 32.8707 31.3997C33.7636 31.0299 34.5267 30.4037 35.0636 29.6002C35.6005 28.7967 35.8871 27.8521 35.8871 26.8857C35.8873 26.2442 35.7611 25.6089 35.5157 25.0161C35.2703 24.4234 34.9106 23.8848 34.457 23.4311C34.0035 22.9774 33.465 22.6175 32.8723 22.3719C32.2796 22.1264 31.6444 22 31.0028 22Z" fill="#ABABAB"/>
</g>
<defs>
<filter id="filter0_d_26_116" x="0.209961" y="0" width="61.5857" height="64" filterUnits="userSpaceOnUse" color-interpolation-filters="sRGB">
<feFlood flood-opacity="0" result="BackgroundImageFix"/>
<feColorMatrix in="SourceAlpha" type="matrix" values="0 0 0 0 0 0 0 0 0 0 0 0 0 0 0 0 0 0 127 0" result="hardAlpha"/>
<feOffset/>
<feGaussianBlur stdDeviation="11"/>
<feComposite in2="hardAlpha" operator="out"/>
<feColorMatrix type="matrix" values="0 0 0 0 0 0 0 0 0 0 0 0 0 0 0 0 0 0 0.25 0"/>
<feBlend mode="normal" in2="BackgroundImageFix" result="effect1_dropShadow_26_116"/>
<feBlend mode="normal" in="SourceGraphic" in2="effect1_dropShadow_26_116" result="shape"/>
</filter>
</defs>
</svg>
