<svg width="18" height="15" viewBox="0 0 18 15" fill="none" xmlns="http://www.w3.org/2000/svg">
<path d="M10.2616 0.879661L17.1213 12.3522C17.2402 12.553 17.3175 12.7757 17.3484 13.007C17.3794 13.2383 17.3634 13.4735 17.3015 13.6985C17.2395 13.9235 17.1329 14.1337 16.9879 14.3166C16.8429 14.4994 16.6625 14.6512 16.4575 14.7628C16.1783 14.9183 15.864 14.9999 15.5444 14.9998H1.82255C1.34715 15.0074 0.888168 14.826 0.546432 14.4954C0.204696 14.1649 0.00815896 13.7122 0 13.2368C0.000951389 12.9249 0.0867246 12.6191 0.248135 12.3522L7.10782 0.879661C7.3604 0.472679 7.76018 0.178758 8.22398 0.0590543C8.68777 -0.0606491 9.17986 0.00308388 9.59785 0.236992C9.87118 0.389918 10.0999 0.611415 10.2616 0.879661ZM8.68472 13.3993C8.95292 13.3993 9.2151 13.3198 9.4381 13.1708C9.6611 13.0218 9.83491 12.81 9.93755 12.5622C10.0402 12.3144 10.067 12.0417 10.0147 11.7787C9.96239 11.5156 9.83324 11.274 9.64359 11.0844C9.45395 10.8947 9.21232 10.7656 8.94927 10.7132C8.68622 10.6609 8.41356 10.6878 8.16578 10.7904C7.91799 10.893 7.7062 11.0669 7.5572 11.2899C7.40819 11.5129 7.32866 11.775 7.32866 12.0432C7.32866 12.4029 7.47153 12.7478 7.72584 13.0021C7.98015 13.2564 8.32507 13.3993 8.68472 13.3993ZM8.68472 3.65381C8.61837 3.65423 8.55209 3.65838 8.48621 3.66621C8.0665 3.71889 7.68485 3.93595 7.42502 4.26974C7.1652 4.60353 7.04844 5.02678 7.10038 5.44658L7.6686 8.56688C7.69872 8.81518 7.81871 9.04387 8.00591 9.20975C8.19312 9.37562 8.43459 9.46721 8.68472 9.46721C8.93484 9.46721 9.17631 9.37562 9.36352 9.20975C9.55073 9.04387 9.67072 8.81518 9.70083 8.56688L10.2691 5.44658C10.2769 5.3807 10.281 5.31442 10.2815 5.24807C10.2808 4.82502 10.1123 4.41952 9.81291 4.12061C9.51353 3.82169 9.10777 3.65381 8.68472 3.65381Z" fill="#FF6464"/>
</svg>
