<svg width="69" height="28" viewBox="0 0 69 28" fill="none" xmlns="http://www.w3.org/2000/svg">
<path d="M12.6076 3.6099C11.7989 4.55566 10.505 5.30162 9.21112 5.19505C9.04938 3.91627 9.68285 2.55756 10.4241 1.71836C11.2328 0.745956 12.648 0.0532826 13.7937 0C13.9285 1.33206 13.4028 2.63749 12.6076 3.6099ZM13.7802 5.44814C11.9067 5.34158 10.3028 6.50048 9.41329 6.50048C8.51026 6.50048 7.14897 5.50143 5.66638 5.52807C3.73901 5.55471 1.94642 6.63368 0.962518 8.35205C-1.0592 11.7888 0.436872 16.8773 2.3912 19.6746C3.34814 21.0599 4.49378 22.5785 6.00333 22.5252C7.43201 22.4719 7.99809 21.6061 9.72329 21.6061C11.462 21.6061 11.9607 22.5252 13.4702 22.4986C15.0337 22.4719 16.0176 21.1132 16.9745 19.7279C18.0662 18.156 18.511 16.6242 18.538 16.5442C18.511 16.5176 15.5189 15.3853 15.4919 11.9753C15.465 9.12464 17.8506 7.76594 17.9584 7.68601C16.6106 5.71456 14.508 5.50143 13.7802 5.44814ZM24.6031 1.58516V22.352H27.8648V15.2521H32.38C36.5043 15.2521 39.4021 12.4548 39.4021 8.40533C39.4021 4.35585 36.5582 1.58516 32.4878 1.58516H24.6031ZM27.8648 4.30257H31.6252C34.4556 4.30257 36.073 5.79448 36.073 8.41865C36.073 11.0428 34.4556 12.548 31.6117 12.548H27.8648V4.30257ZM45.3594 22.5119C47.4081 22.5119 49.3085 21.4862 50.1711 19.8611H50.2385V22.352H53.2576V12.0152C53.2576 9.01808 50.8315 7.08658 47.0981 7.08658C43.6342 7.08658 41.0734 9.04472 40.979 11.7355H43.9172C44.1598 10.4567 45.3594 9.61751 47.0037 9.61751C48.9985 9.61751 50.1172 10.5366 50.1172 12.2284V13.3739L46.0468 13.6137C42.2594 13.8402 40.2108 15.372 40.2108 18.0362C40.2108 20.7269 42.3268 22.5119 45.3594 22.5119ZM46.2355 20.0476C44.4968 20.0476 43.3916 19.2217 43.3916 17.9562C43.3916 16.6508 44.4564 15.8915 46.4916 15.7716L50.1172 15.5452V16.7174C50.1172 18.6622 48.4459 20.0476 46.2355 20.0476ZM57.2875 28C60.4684 28 61.9644 26.8011 63.2718 23.1646L69 7.28639H65.6844L61.8431 19.5547H61.7757L57.9345 7.28639H54.5245L60.0505 22.4053L59.754 23.3245C59.2553 24.883 58.4466 25.4824 57.0045 25.4824C56.7484 25.4824 56.2497 25.4558 56.0475 25.4291V27.9201C56.2362 27.9734 57.0449 28 57.2875 28Z" fill="white"/>
</svg>
