<svg width="71" height="33" viewBox="0 0 71 33" fill="none" xmlns="http://www.w3.org/2000/svg">
<path d="M66.8569 0H4.14257C3.04474 0.00067965 1.99202 0.429124 1.21539 1.19132C0.438763 1.95352 0.00166337 2.98722 0 4.06561V28.9349C0.00180186 30.0132 0.438962 31.0468 1.21557 31.8089C1.99219 32.5709 3.04483 32.9993 4.14257 33H66.8569C67.9547 32.9993 69.0074 32.571 69.7841 31.8089C70.5608 31.0468 70.9981 30.0133 71 28.9349V4.06561C70.9982 2.98718 70.561 1.95348 69.7843 1.19129C69.0076 0.429107 67.9548 0.00067938 66.8569 0Z" fill="white"/>
<path d="M66.8569 0.425227H4.14257C3.65568 0.424957 3.17351 0.518891 2.72358 0.701666C2.27365 0.88444 1.86478 1.15248 1.5203 1.49047C1.17582 1.82846 0.902494 2.22979 0.715916 2.67155C0.529339 3.11331 0.433167 3.58684 0.432892 4.0651V28.9349C0.433167 29.4131 0.529342 29.8866 0.715926 30.3284C0.90251 30.7701 1.17585 31.1714 1.52033 31.5094C1.86481 31.8473 2.27369 32.1153 2.72362 32.298C3.17355 32.4807 3.65571 32.5746 4.14257 32.5743H66.8569C67.3437 32.5745 67.8258 32.4806 68.2757 32.2979C68.7256 32.1151 69.1344 31.8471 69.4788 31.5092C69.8232 31.1712 70.0965 30.77 70.2831 30.3283C70.4696 29.8866 70.5658 29.4131 70.5661 28.9349V4.0651C70.5655 3.09929 70.1744 2.17325 69.4788 1.49065C68.7832 0.808058 67.8401 0.424818 66.8569 0.425227Z" fill="url(#paint0_linear_118_107)"/>
<path d="M27.0982 7.67679C27.1115 5.66403 25.4613 4.02177 23.4122 4.0087C21.3632 3.99564 19.6913 5.6167 19.678 7.62946C19.6647 9.64222 21.315 11.2845 23.364 11.2975C25.4131 11.3106 27.0849 9.68955 27.0982 7.67679Z" fill="white"/>
<path d="M30.0145 5.17727H34.1618V28.2927H30.0145V5.17727Z" fill="white"/>
<path d="M37.8422 13.1527H41.9894V28.2927H37.8422V13.1527Z" fill="white"/>
<path d="M19.232 13.0015C17.9336 12.9997 16.655 13.3149 15.5113 13.9188V5.17778H11.3635V20.7276C11.3631 22.2561 11.8242 23.7504 12.6883 25.0215C13.5525 26.2927 14.7811 27.2835 16.2185 27.8688C17.656 28.4541 19.2379 28.6075 20.7642 28.3096C22.2904 28.0117 23.6924 27.2759 24.793 26.1953C25.8935 25.1147 26.6431 23.7378 26.9469 22.2387C27.2508 20.7396 27.0953 19.1857 26.5 17.7734C25.9048 16.3611 24.8966 15.154 23.6029 14.3046C22.3092 13.4552 20.7881 13.0017 19.232 13.0015ZM19.232 24.4472C18.4832 24.4472 17.7512 24.229 17.1286 23.8204C16.506 23.4118 16.0207 22.831 15.7342 22.1514C15.4476 21.4719 15.3726 20.7241 15.5186 20.0027C15.6647 19.2813 16.0252 18.6186 16.5546 18.0985C17.0841 17.5784 17.7587 17.2241 18.4931 17.0806C19.2275 16.937 19.9887 17.0106 20.6805 17.292C21.3724 17.5734 21.9637 18.05 22.3798 18.6615C22.7959 19.2731 23.018 19.992 23.0181 20.7276C23.0183 21.2161 22.9205 21.6998 22.7303 22.1511C22.5402 22.6025 22.2613 23.0126 21.9097 23.358C21.5581 23.7034 21.1406 23.9774 20.6812 24.1643C20.2217 24.3512 19.7293 24.4473 19.232 24.4472Z" fill="white"/>
<path d="M27.0982 7.67679C27.1115 5.66403 25.4613 4.02177 23.4122 4.0087C21.3632 3.99564 19.6913 5.6167 19.678 7.62946C19.6647 9.64222 21.315 11.2845 23.364 11.2975C25.4131 11.3106 27.0849 9.68955 27.0982 7.67679Z" fill="url(#paint1_linear_118_107)"/>
<path d="M30.0145 5.17727H34.1618V28.2927H30.0145V5.17727Z" fill="white"/>
<path d="M37.8422 13.1527H41.9894V28.2927H37.8422V13.1527Z" fill="white"/>
<path d="M19.232 13.0015C17.9336 12.9997 16.655 13.3149 15.5113 13.9188V5.17778H11.3635V20.7276C11.3631 22.2561 11.8242 23.7504 12.6883 25.0215C13.5525 26.2927 14.7811 27.2835 16.2185 27.8688C17.656 28.4541 19.2379 28.6075 20.7642 28.3096C22.2904 28.0117 23.6924 27.2759 24.793 26.1953C25.8935 25.1147 26.6431 23.7378 26.9469 22.2387C27.2508 20.7396 27.0953 19.1857 26.5 17.7734C25.9048 16.3611 24.8966 15.154 23.6029 14.3046C22.3092 13.4552 20.7881 13.0017 19.232 13.0015ZM19.232 24.4472C18.4832 24.4472 17.7512 24.229 17.1286 23.8204C16.506 23.4118 16.0207 22.831 15.7342 22.1514C15.4476 21.4719 15.3726 20.7241 15.5186 20.0027C15.6647 19.2813 16.0252 18.6186 16.5546 18.0985C17.0841 17.5784 17.7587 17.2241 18.4931 17.0806C19.2275 16.937 19.9887 17.0106 20.6805 17.292C21.3724 17.5734 21.9637 18.05 22.3798 18.6615C22.7959 19.2731 23.018 19.992 23.0181 20.7276C23.0183 21.2161 22.9205 21.6998 22.7303 22.1511C22.5402 22.6025 22.2613 23.0126 21.9097 23.358C21.5581 23.7034 21.1406 23.9774 20.6812 24.1643C20.2217 24.3512 19.7293 24.4473 19.232 24.4472Z" fill="white"/>
<path d="M55.6326 28.2937H60.9749L54.5564 20.1507L60.3766 13.1537H55.5311L49.8155 20.1944V5.18035H45.6672V28.2937H49.8155L49.8124 20.2139L55.6326 28.2937Z" fill="white"/>
<defs>
<linearGradient id="paint0_linear_118_107" x1="35.5" y1="32.769" x2="35.5" y2="0.132001" gradientUnits="userSpaceOnUse">
<stop offset="1" stop-color="#222323"/>
</linearGradient>
<linearGradient id="paint1_linear_118_107" x1="10.437" y1="4.818" x2="28.2558" y2="43.2097" gradientUnits="userSpaceOnUse">
<stop stop-color="#E52F08"/>
<stop offset="1" stop-color="#E94F96"/>
</linearGradient>
</defs>
</svg>
