<svg width="101" height="26" viewBox="0 0 101 26" fill="none" xmlns="http://www.w3.org/2000/svg">
<path d="M39.6482 11.9548H35.3759V9.1041C35.3759 8.27576 35.3274 7.75797 35.2373 7.55094C35.1471 7.34749 34.9463 7.24398 34.6345 7.24398C34.281 7.24398 34.0592 7.36811 33.9622 7.61659C33.8686 7.86842 33.8203 8.40683 33.8203 9.23517V16.8381C33.8203 17.6355 33.8686 18.1531 33.9622 18.3946C34.0592 18.6397 34.2706 18.7605 34.6032 18.7605C34.9219 18.7605 35.1299 18.6397 35.227 18.3946C35.324 18.1531 35.3759 17.5835 35.3759 16.6864V14.6363H39.6482V15.2713C39.6482 16.9624 39.5268 18.1634 39.2879 18.871C39.0487 19.5783 38.5149 20.1996 37.694 20.7311C36.8727 21.2625 35.8575 21.5319 34.6553 21.5319C33.4009 21.5319 32.3683 21.304 31.5577 20.8518C30.7469 20.3997 30.2063 19.7752 29.9431 18.9781C29.6798 18.1773 29.548 16.9763 29.548 15.3714V10.5914C29.548 9.41128 29.5895 8.5276 29.6692 7.93766C29.7524 7.34749 29.9916 6.77794 30.3967 6.23281C30.7988 5.68746 31.3567 5.25592 32.0705 4.94202C32.7841 4.63125 33.6053 4.47262 34.5305 4.47262C35.7916 4.47262 36.8312 4.71752 37.6488 5.20081C38.4667 5.68746 39.0036 6.29129 39.2635 7.01611C39.52 7.74094 39.6482 8.86929 39.6482 10.3983V11.9548ZM44.8039 12.8167H40.8847V11.8997C40.8847 10.8455 41.0081 10.0303 41.2515 9.45744C41.4983 8.88475 41.9888 8.37524 42.7261 7.93609C43.4634 7.49694 44.4195 7.27893 45.5976 7.27893C47.0124 7.27893 48.0743 7.52853 48.7904 8.02392C49.51 8.5229 49.9405 9.13435 50.0851 9.85805C50.2297 10.582 50.3003 12.072 50.3003 14.3311V21.4624H46.2399V19.9709C45.9859 20.4593 45.6542 20.8247 45.252 21.0672C44.8499 21.3132 44.3701 21.4326 43.8092 21.4326C43.0789 21.4326 42.4087 21.2289 41.7984 20.8211C41.1915 20.4138 40.8847 19.5176 40.8847 18.1401V17.0158C40.8847 15.9932 41.0469 15.2975 41.3716 14.9287C41.696 14.5561 42.4969 14.1239 43.781 13.6321C45.1498 13.0943 45.8834 12.7361 45.9823 12.5496C46.0775 12.3635 46.1269 11.9875 46.1269 11.4182C46.1269 10.705 46.0705 10.2376 45.9647 10.0234C45.8588 9.8054 45.6824 9.6965 45.432 9.6965C45.1498 9.6965 44.9733 9.78769 44.9063 9.97053C44.8357 10.1534 44.8039 10.6241 44.8039 11.3866V12.8167ZM46.1269 14.6896C45.4566 15.1781 45.0686 15.5856 44.9627 15.9159C44.8569 16.2461 44.8039 16.7205 44.8039 17.3355C44.8039 18.0417 44.8499 18.4986 44.9415 18.7061C45.0334 18.9133 45.2202 19.0152 45.4954 19.0152C45.7564 19.0152 45.9258 18.9344 46.0068 18.7726C46.0845 18.6111 46.1269 18.1858 46.1269 17.5006V14.6896ZM60.2626 11.8891H56.562V11.1513C56.562 10.5188 56.5266 10.1182 56.4526 9.94947C56.3822 9.78075 56.2022 9.6965 55.913 9.6965C55.6765 9.6965 55.5001 9.7738 55.3837 9.9284C55.2673 10.083 55.2073 10.3149 55.2073 10.6241C55.2073 11.0422 55.2391 11.3516 55.2955 11.5447C55.3555 11.7415 55.5319 11.9559 55.8247 12.1878C56.1176 12.4233 56.7172 12.7641 57.6273 13.2068C58.8409 13.797 59.6348 14.3558 60.0156 14.8758C60.393 15.3994 60.5837 16.1549 60.5837 17.1529C60.5837 18.2631 60.4391 19.1031 60.1496 19.6686C59.8604 20.2343 59.3735 20.6701 58.6963 20.976C58.019 21.2816 57.2005 21.4326 56.241 21.4326C55.1827 21.4326 54.2726 21.2675 53.5175 20.9408C52.7626 20.6103 52.2439 20.164 51.9617 19.6018C51.6797 19.0397 51.5385 18.1858 51.5385 17.0474V16.3904H55.2391V17.2548C55.2391 17.9891 55.2849 18.467 55.3801 18.6848C55.4719 18.9061 55.6553 19.0152 55.9305 19.0152C56.2268 19.0152 56.435 18.9413 56.5514 18.7937C56.6678 18.6462 56.7278 18.3334 56.7278 17.8625C56.7278 17.2091 56.6536 16.8013 56.502 16.6362C56.3432 16.4711 55.5319 15.9862 54.0713 15.1745C52.8438 14.4893 52.0959 13.8673 51.8277 13.3052C51.5597 12.7464 51.4257 12.0823 51.4257 11.3129C51.4257 10.2235 51.5703 9.4189 51.8595 8.89886C52.1487 8.38219 52.6392 7.9818 53.3341 7.70061C54.0255 7.41964 54.8298 7.27893 55.7471 7.27893C56.6536 7.27893 57.4297 7.39477 58.0648 7.62331C58.7032 7.85521 59.1937 8.15746 59.5323 8.53343C59.8746 8.91275 60.0826 9.26071 60.1532 9.58403C60.2272 9.90734 60.2626 10.4133 60.2626 11.0984V11.8891Z" fill="#FF0000"/>
<path d="M65.9707 4.47285V8.291C66.3323 7.95424 66.7265 7.70352 67.149 7.53525C67.5718 7.36699 68.0266 7.28453 68.5101 7.28453C69.2517 7.28453 69.8818 7.47431 70.4014 7.8505C70.9243 8.23005 71.2431 8.6636 71.3577 9.15787C71.4721 9.65192 71.5296 10.5511 71.5296 11.8582V21.4606H67.2923V11.6613C67.2923 10.8482 67.2494 10.329 67.1704 10.096C67.0917 9.86701 66.9092 9.74871 66.6297 9.74871C66.3718 9.74871 66.1963 9.8706 66.1067 10.1068C66.0135 10.3431 65.9707 10.8159 65.9707 11.5253V21.4606H61.7297V4.47285H65.9707Z" fill="#FF0000"/>
<path d="M73.1161 4.46792H77.5253C78.915 4.46792 79.9718 4.57546 80.6881 4.79414C81.4044 5.00924 81.9846 5.44996 82.4252 6.10958C82.8658 6.77256 83.0842 7.83706 83.0842 9.30642C83.0842 10.3028 82.9301 10.9945 82.6186 11.385C82.307 11.7793 81.6945 12.0805 80.7774 12.2882C81.7983 12.5212 82.4897 12.9048 82.855 13.4387C83.2166 13.9762 83.3994 14.7969 83.3994 15.9009V17.4778C83.3994 18.6247 83.2706 19.4741 83.0055 20.0296C82.744 20.5816 82.3248 20.958 81.7518 21.1622C81.1787 21.3665 80.0038 21.4669 78.2274 21.4669H73.1161V4.46792ZM77.5361 7.37461V11.1558C77.7225 11.1484 77.8691 11.145 77.9767 11.145C78.4099 11.145 78.6858 11.0375 78.804 10.826C78.9222 10.6109 78.9832 10.0017 78.9832 8.99454C78.9832 8.46061 78.9331 8.08778 78.8363 7.87627C78.7359 7.6614 78.6107 7.52517 78.453 7.4714C78.2955 7.41404 77.9873 7.38177 77.5361 7.37461ZM77.5361 13.8008V18.5566C78.1559 18.5387 78.5534 18.4383 78.7253 18.2626C78.8972 18.0908 78.9832 17.657 78.9832 16.9725V15.3884C78.9832 14.6609 78.9044 14.22 78.7503 14.0658C78.5962 13.9117 78.1915 13.8221 77.5361 13.8008ZM89.2234 4.46792V6.68294H84.8572V4.46792H89.2234ZM89.2234 7.53234V21.4669H84.8572V7.53234H89.2234ZM95.1117 4.46792V21.4669H90.7456V4.46792H95.1117ZM101 4.46792V21.4669H96.6339V4.46792H101Z" fill="white"/>
<path fill-rule="evenodd" clip-rule="evenodd" d="M18.3379 4.2293C18.3271 4.22213 18.3162 4.2154 18.3054 4.20846L18.2926 4.20039C18.0902 4.07694 17.8524 4.00614 17.5977 4.00614C16.8627 4.00614 16.2668 4.59809 16.2668 5.32785C16.2668 5.80105 16.5173 6.21601 16.8936 6.44947C19.4517 8.08218 21.1467 10.9337 21.1467 14.1774C21.1467 19.2458 17.008 23.3564 11.9043 23.3564C6.80065 23.3564 2.66192 19.2458 2.66192 14.1774C2.66192 10.9337 4.35689 8.0824 6.91504 6.4497C7.29135 6.21623 7.54199 5.80105 7.54199 5.32785C7.54199 4.59809 6.94594 4.00614 6.21092 4.00614C5.95644 4.00614 5.71842 4.07716 5.51606 4.20062L5.5032 4.20846C5.49214 4.2154 5.48154 4.22213 5.47071 4.2293C2.18003 6.33296 0 10.0028 0 14.1774C0 20.7058 5.33083 26 11.9043 26C18.4778 26 23.8086 20.7058 23.8086 14.1774C23.8086 10.0028 21.6286 6.33296 18.3379 4.2293Z" fill="white"/>
<path fill-rule="evenodd" clip-rule="evenodd" d="M11.9043 0C13.9406 0 15.5918 1.63987 15.5918 3.66221C15.5918 5.68432 13.9406 7.32419 11.9043 7.32419C9.86821 7.32419 8.21678 5.68432 8.21678 3.66221C8.21678 1.63987 9.86821 0 11.9043 0Z" fill="#FF0000"/>
<path d="M14.5895 13.5774H12.3178V12.0661C12.3178 11.627 12.2921 11.3525 12.2443 11.2427C12.1962 11.1347 12.0895 11.0798 11.9237 11.0798C11.7358 11.0798 11.6178 11.1457 11.5661 11.2774C11.5165 11.411 11.4908 11.6964 11.4908 12.1356V16.1664C11.4908 16.5889 11.5165 16.8634 11.5661 16.9916C11.6178 17.1215 11.7301 17.1856 11.907 17.1856C12.0764 17.1856 12.1872 17.1215 12.2387 16.9916C12.2903 16.8634 12.3178 16.5616 12.3178 16.0859V14.999H14.5895V15.3358C14.5895 16.2322 14.5249 16.869 14.3979 17.2441C14.2707 17.6192 13.9871 17.9485 13.5503 18.2304C13.1138 18.512 12.5739 18.6547 11.9348 18.6547C11.2676 18.6547 10.7187 18.534 10.2876 18.2942C9.85648 18.0547 9.56906 17.7236 9.42918 17.3008C9.28908 16.8762 9.21915 16.2396 9.21915 15.3887V12.8546C9.21915 12.2288 9.24126 11.7605 9.28367 11.4477C9.32789 11.1347 9.4549 10.8329 9.67058 10.5437C9.88423 10.2546 10.1807 10.0259 10.5604 9.85939C10.9398 9.69471 11.3764 9.61069 11.8684 9.61069C12.5389 9.61069 13.0917 9.74064 13.5264 9.99674C13.9611 10.2546 14.2468 10.5748 14.3851 10.9591C14.5213 11.3433 14.5895 11.9416 14.5895 12.7522V13.5774Z" fill="white"/>
</svg>
