<svg width="72" height="28" viewBox="0 0 72 28" fill="none" xmlns="http://www.w3.org/2000/svg">
<path d="M34.0319 13.6502V21.8375H31.3327V1.58937H38.3505C40.06 1.58937 41.6795 2.20562 42.9391 3.35008C44.1987 4.40651 44.8285 5.99114 44.8285 7.66382C44.8285 9.33649 44.1987 10.8331 42.9391 11.9776C41.6795 13.122 40.15 13.7383 38.3505 13.7383L34.0319 13.6502ZM34.0319 4.05437V11.0972H38.5305C39.5201 11.0972 40.5098 10.7451 41.1396 10.0408C42.5792 8.72024 42.5792 6.51936 41.2296 5.19883L41.1396 5.11079C40.4199 4.40651 39.5201 3.96633 38.5305 4.05437H34.0319Z" fill="white"/>
<path d="M51.0366 7.57578C53.0159 7.57578 54.5455 8.104 55.7151 9.16042C56.8847 10.2168 57.4246 11.6254 57.4246 13.3861V21.8375H54.9053V19.9007H54.8154C53.7357 21.4854 52.2062 22.2777 50.4067 22.2777C48.8772 22.2777 47.5276 21.8375 46.448 20.9572C45.4583 20.0768 44.8285 18.8443 44.8285 17.5238C44.8285 16.1152 45.3683 14.9708 46.448 14.0904C47.5276 13.21 49.0572 12.8579 50.8566 12.8579C52.4761 12.8579 53.7357 13.122 54.7254 13.7383V13.122C54.7254 12.2417 54.3655 11.3613 53.6457 10.8331C52.926 10.2168 52.0262 9.8647 51.0366 9.8647C49.507 9.8647 48.3374 10.481 47.5276 11.7134L45.1884 10.3049C46.6279 8.45613 48.5173 7.57578 51.0366 7.57578ZM47.6176 17.6118C47.6176 18.3161 47.9775 18.9324 48.5173 19.2845C49.1471 19.7247 49.8669 19.9888 50.5867 19.9888C51.6664 19.9888 52.746 19.5486 53.5558 18.7563C54.4555 17.964 54.9053 16.9956 54.9053 15.9391C54.0956 15.3229 52.926 14.9708 51.3964 14.9708C50.3168 14.9708 49.4171 15.2349 48.6973 15.7631C47.9775 16.2033 47.6176 16.8195 47.6176 17.6118Z" fill="white"/>
<path d="M72 8.01596L63.0928 28H60.3936L63.7226 21.0452L57.8744 8.10399H60.7535L64.9822 18.052H65.0722L69.2109 8.10399H72V8.01596Z" fill="white"/>
<path d="M23.3252 11.8895C23.3252 11.0972 23.2352 10.3049 23.1453 9.51256H11.8988V14.0024H18.2868C18.0169 15.4109 17.2071 16.7315 15.9475 17.5238V20.429H19.8163C22.0656 18.4041 23.3252 15.4109 23.3252 11.8895Z" fill="#4285F4"/>
<path d="M11.8988 23.2461C15.1378 23.2461 17.8369 22.1897 19.8163 20.429L15.9475 17.5238C14.8679 18.2281 13.5183 18.6682 11.8988 18.6682C8.83974 18.6682 6.14058 16.6434 5.24086 13.8263H1.2821V16.8195C3.35145 20.7811 7.40019 23.2461 11.8988 23.2461Z" fill="#34A853"/>
<path d="M5.24086 13.8263C4.70103 12.4177 4.70103 10.8331 5.24086 9.33649V6.34329H1.2821C-0.427366 9.6006 -0.427366 13.4742 1.2821 16.8195L5.24086 13.8263Z" fill="#FBBC04"/>
<path d="M11.8988 4.58258C13.6082 4.58258 15.2277 5.19883 16.4873 6.34329L19.9063 2.99794C17.747 1.06116 14.8679 -0.083299 11.9888 0.00473643C7.49016 0.00473643 3.35145 2.46973 1.37207 6.43132L5.33083 9.42452C6.14058 6.60739 8.83974 4.58258 11.8988 4.58258Z" fill="#EA4335"/>
</svg>
