<svg width="62" height="23" viewBox="0 0 62 23" fill="none" xmlns="http://www.w3.org/2000/svg">
<path fill-rule="evenodd" clip-rule="evenodd" d="M37.033 15.6412C37.1388 15.7329 37.2225 15.8474 37.2776 15.9761C37.3328 16.1049 37.3578 16.2444 37.3513 16.3843C37.3513 17.1862 36.8874 17.5872 35.9597 17.5872H27.9888C27.6944 17.6052 27.4049 17.5055 27.184 17.31C26.9631 17.1145 26.8288 16.8393 26.8108 16.5448C26.8085 16.507 26.8081 16.4692 26.8097 16.4314C26.8101 16.2279 26.8522 16.0267 26.9333 15.8401C27.0144 15.6535 27.1329 15.4854 27.2814 15.3464L33.8608 8.2698H28.7671C28.4342 8.29349 28.1038 8.19731 27.8357 7.99863C27.7282 7.90317 27.6437 7.78459 27.5885 7.65179C27.5334 7.51898 27.509 7.37542 27.5172 7.23185C27.5172 6.44554 27.9809 6.05241 28.9085 6.05246H36.526C36.6855 6.0448 36.8448 6.07137 36.9932 6.13035C37.1417 6.18936 37.2759 6.27943 37.3868 6.39451C37.5953 6.61355 37.7096 6.90579 37.7051 7.20834C37.6957 7.62461 37.5268 8.02141 37.2333 8.31683L30.6772 15.3699H36.1013C36.4344 15.3467 36.7646 15.4429 37.033 15.6412Z" fill="white"/>
<path fill-rule="evenodd" clip-rule="evenodd" d="M48.848 12.0791C48.7567 12.1694 48.6478 12.2401 48.5281 12.2867C48.4086 12.3334 48.2806 12.355 48.1521 12.3503H41.1481C41.1299 13.2209 41.4464 14.0654 42.0326 14.7092C42.3429 14.9896 42.7063 15.205 43.1011 15.3428C43.4961 15.4806 43.9145 15.5379 44.332 15.5115C44.8382 15.5174 45.3425 15.4498 45.8294 15.3109C46.2975 15.1683 46.7454 14.9661 47.1618 14.7092C47.3418 14.6061 47.5443 14.5494 47.7514 14.5443C47.8717 14.539 47.9914 14.563 48.1003 14.6144C48.2092 14.6658 48.304 14.7429 48.3762 14.8391C48.5292 15.0471 48.6083 15.3004 48.6006 15.5585C48.6017 15.781 48.5485 16.0004 48.4459 16.1977C48.3432 16.3951 48.1939 16.5643 48.0107 16.6909C47.4985 17.0468 46.9277 17.3102 46.3245 17.4691C45.6158 17.6748 44.8812 17.7781 44.1431 17.7756C43.0721 17.8007 42.011 17.5618 41.0539 17.0801C40.1953 16.6377 39.486 15.9527 39.0139 15.1103C38.5188 14.1993 38.2708 13.1746 38.2944 12.138C38.2747 10.9989 38.5253 9.87126 39.0256 8.84767C39.482 7.91424 40.1933 7.12912 41.0773 6.58311C41.9868 6.03247 43.0331 5.75028 44.0959 5.76911C44.7822 5.72691 45.4696 5.83371 46.1106 6.08211C46.7517 6.33051 47.3316 6.71469 47.8105 7.20826C48.7493 8.36186 49.2169 9.82815 49.1191 11.3125C49.1279 11.4519 49.1085 11.5917 49.0619 11.7235C49.0153 11.8552 48.9424 11.9762 48.848 12.0791ZM41.2425 10.77H46.6194C46.6891 9.99202 46.471 9.2155 46.006 8.58792C45.7824 8.33727 45.5051 8.1403 45.1949 8.01167C44.8846 7.88304 44.5493 7.82608 44.214 7.84499C42.5473 7.84499 41.5568 8.81999 41.2425 10.77Z" fill="white"/>
<path fill-rule="evenodd" clip-rule="evenodd" d="M60.9861 6.81922C61.7116 7.68302 62.0711 8.79591 61.9883 9.92092C61.9883 10.2199 61.9806 10.448 61.965 10.6052L61.4932 16.3134C61.4878 16.5091 61.4434 16.7018 61.3624 16.8801C61.2813 17.0584 61.1655 17.2186 61.0216 17.3513C60.7205 17.6093 60.3328 17.7442 59.9366 17.729C59.7435 17.7409 59.5498 17.7135 59.3675 17.6486C59.1852 17.5837 59.0177 17.4826 58.8755 17.3513C58.7464 17.2139 58.65 17.0494 58.5928 16.8698C58.5357 16.6902 58.5195 16.5001 58.5453 16.3134L59.0172 10.7232C59.1426 8.97741 58.4506 8.10449 56.9416 8.10443C56.5676 8.08345 56.1936 8.142 55.8438 8.27622C55.4943 8.41045 55.1771 8.61733 54.9132 8.88317C54.3908 9.48824 54.091 10.2541 54.0643 11.0533L53.6163 16.3134C53.6109 16.5091 53.5666 16.7018 53.4855 16.8801C53.4047 17.0584 53.2887 17.2186 53.1448 17.3513C52.8436 17.6093 52.4563 17.7442 52.0598 17.729C51.8684 17.7417 51.6764 17.7147 51.4958 17.6497C51.3152 17.5847 51.15 17.4831 51.0103 17.3513C50.8843 17.2116 50.7891 17.0471 50.7302 16.8684C50.6713 16.6897 50.6503 16.5007 50.6685 16.3134L51.4233 7.16109C51.4242 6.97317 51.4671 6.78778 51.5487 6.61846C51.6301 6.44917 51.7484 6.30015 51.8948 6.18231C52.2094 5.9332 52.6022 5.80364 53.0032 5.81653C53.1838 5.80568 53.3644 5.83144 53.5347 5.8922C53.7048 5.95297 53.8609 6.04752 53.9937 6.17019C54.1123 6.29379 54.1999 6.44386 54.2491 6.60798C54.2983 6.77211 54.3077 6.94557 54.2764 7.11407L54.2531 7.56197C54.6538 6.98981 55.1988 6.5341 55.833 6.24129C56.5272 5.91938 57.2851 5.75806 58.0502 5.76934C58.5854 5.73137 59.123 5.80506 59.6283 5.98579C60.1337 6.16653 60.5962 6.45034 60.9861 6.81922Z" fill="white"/>
<path fill-rule="evenodd" clip-rule="evenodd" d="M21.8997 6.67199C21.4561 5.98835 20.7774 5.49109 19.9919 5.27427C19.2065 5.05747 18.3688 5.13615 17.6375 5.49547C17.0231 5.80733 16.5224 6.30461 16.2062 6.91687C15.8901 7.52915 15.7745 8.22537 15.8758 8.90699C15.9772 9.58861 16.2904 10.2211 16.771 10.7148C17.2516 11.2085 17.8753 11.5385 18.5538 11.658C18.4953 13.5051 17.7153 15.2556 16.3811 16.534C15.047 17.8124 13.265 18.5167 11.4175 18.4959C9.57007 18.475 7.8044 17.7306 6.49942 16.4225C5.19443 15.1143 4.4541 13.3466 4.43729 11.4987C4.43397 10.0738 4.86799 8.68224 5.68082 7.51208C6.49362 6.3419 7.64596 5.44952 8.98215 4.95553C9.23638 4.86351 9.44843 4.68209 9.57877 4.44519C9.70914 4.20826 9.74884 3.93201 9.69054 3.66796L9.68258 3.63286C9.65064 3.49078 9.64697 3.3438 9.67183 3.20032C9.69668 3.05681 9.74953 2.91964 9.8274 2.79658C9.90524 2.67352 10.0066 2.56701 10.1256 2.48312C10.2446 2.39924 10.3789 2.33961 10.521 2.30766C10.5697 2.29677 10.6192 2.28909 10.6689 2.28469C10.9436 2.25955 11.2198 2.24689 11.4976 2.24671C11.841 2.24678 12.1842 2.26562 12.5257 2.30314C12.6724 2.31919 12.8209 2.30617 12.9626 2.26483C13.1043 2.2235 13.2365 2.15465 13.3516 2.06221C13.4667 1.96977 13.5624 1.85557 13.6334 1.72611C13.7044 1.59665 13.7492 1.45447 13.7652 1.30771C13.7674 1.28726 13.7692 1.267 13.7701 1.24674C13.7781 0.951876 13.6731 0.665106 13.4764 0.44526C13.2798 0.225414 13.0065 0.0891582 12.7127 0.0644463C10.3999 -0.181479 8.06694 0.279981 6.02182 1.38789C3.9767 2.4958 2.31559 4.19807 1.25783 6.26991C0.200074 8.34176 -0.204598 10.6858 0.0972432 12.9925C0.399084 15.2991 1.39325 17.46 2.94847 19.1898C4.50367 20.9196 6.54683 22.1369 8.80812 22.681C11.0694 23.2251 13.4425 23.0705 15.6141 22.2375C17.7857 21.4045 19.6537 19.9323 20.9714 18.0153C22.289 16.0983 22.9945 13.8267 22.9945 11.5003C22.9945 10.3761 22.7684 7.95232 21.8997 6.67199Z" fill="white"/>
<path fill-rule="evenodd" clip-rule="evenodd" d="M15.8339 0.873932C16.0695 0.873915 16.2997 0.943764 16.4956 1.07465C16.6915 1.20554 16.8441 1.39159 16.9343 1.60927C17.0244 1.82695 17.048 2.06647 17.0021 2.29756C16.9561 2.52865 16.8427 2.74092 16.6761 2.90751C16.5096 3.07413 16.2973 3.18757 16.0663 3.23354C15.8353 3.27952 15.5958 3.25592 15.3782 3.16574C15.1606 3.07555 14.9746 2.92287 14.8437 2.72695C14.7129 2.53104 14.643 2.3007 14.643 2.06509C14.6431 1.74918 14.7685 1.44622 14.9919 1.22284C15.2152 0.999463 15.5181 0.87396 15.8339 0.873932Z" fill="white"/>
</svg>
